/* XPM */
static const char * network_xpm[] = {
"24 24 78 1",
" 	c None",
".	c #1D1E1F",
"+	c #202429",
"@	c #1E1F1F",
"#	c #1C1E22",
"$	c #839BB7",
"%	c #91AFCE",
"&	c #1B1E21",
"*	c #1B1E22",
"=	c #84A1C1",
"-	c #94B6DC",
";	c #7997B8",
">	c #89ACD2",
",	c #1A1D21",
"'	c #6D8CAE",
")	c #7DA1C9",
"!	c #769CC7",
"~	c #6C95C2",
"{	c #648FBF",
"]	c #50759E",
"^	c #1A1C21",
"/	c #6181A4",
"(	c #7095BF",
"_	c #7095BE",
":	c #688FBB",
"<	c #5D87B6",
"[	c #5984B4",
"}	c #4A6E96",
"|	c #1A1C1F",
"1	c #557599",
"2	c #6389B4",
"3	c #6389B3",
"4	c #5C84B1",
"5	c #557FAD",
"6	c #537DAC",
"7	c #45688F",
"8	c #1A1C1E",
"9	c #47698D",
"0	c #547CA8",
"a	c #537BA8",
"b	c #5079A6",
"c	c #4D77A4",
"d	c #4C76A4",
"e	c #3F6288",
"f	c #22272F",
"g	c #232930",
"h	c #262E37",
"i	c #466F9B",
"j	c #3A5C81",
"k	c #191C1E",
"l	c #1F242B",
"m	c #406793",
"n	c #35567A",
"o	c #191B1E",
"p	c #1E232A",
"q	c #3A608A",
"r	c #305073",
"s	c #181A1D",
"t	c #1C2126",
"u	c #2A4768",
"v	c #233B57",
"w	c #181A1C",
"x	c #222426",
"y	c #202224",
"z	c #1B1D1F",
"A	c #1D1D1D",
"B	c #24262A",
"C	c #929292",
"D	c #8A8A8A",
"E	c #26292B",
"F	c #BABABA",
"G	c #9D9D9D",
"H	c #757575",
"I	c #616161",
"J	c #171A1C",
"K	c #212324",
"L	c #999999",
"M	c #626262",
"        .++++++++++++++@",
"        #$%%%%%%%%%%%%$&",
"        *=------------=*",
"        &;>>>>>>>>>>>>;&",
"        ,')))))))))!~{],",
"        ^/((((((_:<[[[}^",
"        |12222345666667|",
"        8900abcddddddde8",
".++++++++fggggghiiiiiijk",
"#$%%%%%%%%%%%%$lmmmmmmno",
"*=------------=pqqqqqqrs",
"&;>>>>>>>>>>>>;tuuuuuuvw",
",')))))))))!~{]&xxxyzzzA",
"^/((((((_:<[[[}BCCCD    ",
"|12222345666667EFFFG    ",
"8900abcdddddddeyHHHI    ",
"kjiiiiiiiiiiiijk        ",
"onmmmmmmmmmmmmno        ",
"srqqqqqqqqqqqqrs        ",
"Jvuuuuuuuuuuuuvw        ",
"AzzzKxxxxxxyzzzA        ",
"    DCCCCCCD            ",
"    LFFFFFFG            ",
"    MHHHHHHI            "};
